#define bgbottom_width 16
#define bgbottom_height 16
static char bgbottom_bits[] = {
   0xaa, 0xaa, 0x00, 0x00, 0xaa, 0xaa, 0x00, 0x00, 0xaa, 0xaa, 0x00, 0x00,
   0xaa, 0xaa, 0x00, 0x00, 0xaa, 0xaa, 0x00, 0x00, 0xaa, 0xaa, 0x00, 0x00,
   0xaa, 0xaa, 0x00, 0x00, 0xaa, 0xaa, 0x00, 0x00};
