#define bgtop_width 16
#define bgtop_height 16
static char bgtop_bits[] = {
   0x22, 0x22, 0x00, 0x00, 0x00, 0x00, 0x00, 0x00, 0x88, 0x88, 0x00, 0x00,
   0x00, 0x00, 0x00, 0x00, 0x22, 0x22, 0x00, 0x00, 0x00, 0x00, 0x00, 0x00,
   0x88, 0x88, 0x00, 0x00, 0x00, 0x00, 0x00, 0x00};
