#define player15_width 16
#define player15_height 16
static char player15_bits[] = {
   0xff, 0xff, 0x88, 0x88, 0xee, 0xee, 0x00, 0x00, 0xff, 0xff, 0x88, 0x88,
   0xee, 0xee, 0x00, 0x00, 0xff, 0xff, 0x88, 0x88, 0xee, 0xee, 0x00, 0x00,
   0xff, 0xff, 0x88, 0x88, 0xee, 0xee, 0x00, 0x00};
