#define player13_width 16
#define player13_height 16
static char player13_bits[] = {
   0xff, 0x00, 0x00, 0xff, 0xff, 0x00, 0x00, 0xff, 0xff, 0x00, 0x00, 0xff,
   0xff, 0x00, 0x00, 0xff, 0xff, 0x00, 0x00, 0xff, 0xff, 0x00, 0x00, 0xff,
   0xff, 0x00, 0x00, 0xff, 0xff, 0x00, 0x00, 0xff};
