#define player6_width 16
#define player6_height 16
static char player6_bits[] = {
   0x77, 0x77, 0xdd, 0xdd, 0x77, 0x77, 0xdd, 0xdd, 0x77, 0x77, 0xdd, 0xdd,
   0x77, 0x77, 0xdd, 0xdd, 0x77, 0x77, 0xdd, 0xdd, 0x77, 0x77, 0xdd, 0xdd,
   0x77, 0x77, 0xdd, 0xdd, 0x77, 0x77, 0xdd, 0xdd};
