#define player11_width 16
#define player11_height 16
static char player11_bits[] = {
   0x0f, 0x0f, 0xf0, 0xf0, 0x0f, 0x0f, 0xf0, 0xf0, 0x0f, 0x0f, 0xf0, 0xf0,
   0x0f, 0x0f, 0xf0, 0xf0, 0x0f, 0x0f, 0xf0, 0xf0, 0x0f, 0x0f, 0xf0, 0xf0,
   0x0f, 0x0f, 0xf0, 0xf0, 0x0f, 0x0f, 0xf0, 0xf0};
