#define player9_width 16
#define player9_height 16
static char player9_bits[] = {
   0x22, 0x22, 0x44, 0x44, 0x22, 0x22, 0x11, 0x11, 0x22, 0x22, 0x44, 0x44,
   0x22, 0x22, 0x11, 0x11, 0x22, 0x22, 0x44, 0x44, 0x22, 0x22, 0x11, 0x11,
   0x22, 0x22, 0x44, 0x44, 0x22, 0x22, 0x11, 0x11};
