#define player3_width 16
#define player3_height 16
static char player3_bits[] = {
   0x88, 0x88, 0x88, 0x88, 0x88, 0x88, 0xff, 0xff, 0x88, 0x88, 0x88, 0x88,
   0x88, 0x88, 0xff, 0xff, 0x88, 0x88, 0x88, 0x88, 0x88, 0x88, 0xff, 0xff,
   0x88, 0x88, 0x88, 0x88, 0x88, 0x88, 0xff, 0xff};
