#define player19_width 16
#define player19_height 16
static char player19_bits[] = {
   0x99, 0x99, 0x42, 0x42, 0x24, 0x24, 0x99, 0x99, 0x99, 0x99, 0x24, 0x24,
   0x42, 0x42, 0x99, 0x99, 0x99, 0x99, 0x42, 0x42, 0x24, 0x24, 0x99, 0x99,
   0x99, 0x99, 0x24, 0x24, 0x42, 0x42, 0x99, 0x99};
