#define player1_width 16
#define player1_height 16
static char player1_bits[] = {
   0x66, 0x66, 0x99, 0x99, 0x99, 0x99, 0x66, 0x66, 0x66, 0x66, 0x99, 0x99,
   0x99, 0x99, 0x66, 0x66, 0x66, 0x66, 0x99, 0x99, 0x99, 0x99, 0x66, 0x66,
   0x66, 0x66, 0x99, 0x99, 0x99, 0x99, 0x66, 0x66};
