#define player7_width 16
#define player7_height 16
static char player7_bits[] = {
   0x33, 0x33, 0xcc, 0xcc, 0x33, 0x33, 0xcc, 0xcc, 0x33, 0x33, 0xcc, 0xcc,
   0x33, 0x33, 0xcc, 0xcc, 0x33, 0x33, 0xcc, 0xcc, 0x33, 0x33, 0xcc, 0xcc,
   0x33, 0x33, 0xcc, 0xcc, 0x33, 0x33, 0xcc, 0xcc};
