#define player2_width 16
#define player2_height 16
static char player2_bits[] = {
   0xff, 0xff, 0x40, 0x40, 0x5f, 0x5f, 0x51, 0x51, 0x5d, 0x5d, 0x41, 0x41,
   0x7f, 0x7f, 0x40, 0x40, 0xff, 0xff, 0x40, 0x40, 0x5f, 0x5f, 0x51, 0x51,
   0x5d, 0x5d, 0x41, 0x41, 0x7f, 0x7f, 0x40, 0x40};
