#define player18_width 16
#define player18_height 16
static char player18_bits[] = {
   0x92, 0xa4, 0xc9, 0xc9, 0xa4, 0x92, 0x92, 0xa4, 0xc9, 0xc9, 0xa4, 0x92,
   0x92, 0xa4, 0xff, 0xff, 0x92, 0xa4, 0xa4, 0x92, 0xc9, 0xc9, 0x92, 0xa4,
   0xa4, 0x92, 0xc9, 0xc9, 0x92, 0xa4, 0xff, 0xff};
