#define player8_width 16
#define player8_height 16
static char player8_bits[] = {
   0x11, 0x11, 0xaa, 0xaa, 0x44, 0x44, 0x00, 0x00, 0x11, 0x11, 0xaa, 0xaa,
   0x44, 0x44, 0x00, 0x00, 0x11, 0x11, 0xaa, 0xaa, 0x44, 0x44, 0x00, 0x00,
   0x11, 0x11, 0xaa, 0xaa, 0x44, 0x44, 0x00, 0x00};
