#define player5_width 16
#define player5_height 16
static char player5_bits[] = {
   0x55, 0x55, 0x44, 0x44, 0xbb, 0xbb, 0x44, 0x44, 0x44, 0x44, 0xbb, 0xbb,
   0x44, 0x44, 0x55, 0x55, 0x55, 0x55, 0x44, 0x44, 0xbb, 0xbb, 0x44, 0x44,
   0x44, 0x44, 0xbb, 0xbb, 0x44, 0x44, 0x55, 0x55};
