#define smiley_width 24
#define smiley_height 24
static char smiley_bits[] = {
   0x00, 0x00, 0x00, 0x00, 0x3e, 0x00, 0xc0, 0xff, 0x01, 0xe0, 0xc1, 0x03,
   0x70, 0x00, 0x07, 0x18, 0x00, 0x0c, 0x1c, 0x22, 0x1c, 0x0c, 0x63, 0x18,
   0x0c, 0x63, 0x18, 0x06, 0x63, 0x30, 0x06, 0x22, 0x30, 0x06, 0x00, 0x30,
   0x46, 0x00, 0x31, 0xc6, 0x80, 0x31, 0xcc, 0x80, 0x19, 0x8c, 0xe3, 0x18,
   0x1c, 0x7f, 0x1c, 0x18, 0x08, 0x0c, 0x70, 0x00, 0x07, 0xe0, 0xc1, 0x03,
   0xc0, 0xff, 0x01, 0x00, 0x3e, 0x00, 0x00, 0x00, 0x00, 0x00, 0x00, 0x00};
