#define unilogo_width 56
#define unilogo_height 132
static char unilogo_bits[] = {
   0x00, 0x00, 0x00, 0x00, 0x00, 0x00, 0x00, 0x00, 0x00, 0x00, 0x00, 0x00,
   0x00, 0x00, 0x00, 0x00, 0x00, 0x00, 0x00, 0x00, 0x00, 0xf8, 0xff, 0xff,
   0xff, 0xff, 0xff, 0x1f, 0xfc, 0xff, 0xff, 0xff, 0xff, 0xff, 0x3f, 0x0c,
   0x00, 0x00, 0x00, 0x00, 0x00, 0x30, 0x0c, 0x00, 0x00, 0x00, 0x00, 0x00,
   0x30, 0x0c, 0x00, 0x00, 0x00, 0x00, 0x00, 0x30, 0x0c, 0x00, 0x00, 0x00,
   0x00, 0x00, 0x30, 0x0c, 0x0c, 0x00, 0x00, 0x00, 0x18, 0x30, 0x0c, 0x3c,
   0x00, 0x00, 0x00, 0x1e, 0x30, 0x0c, 0x78, 0x0f, 0x00, 0x78, 0x1e, 0x30,
   0x0c, 0xf8, 0x1f, 0x00, 0xf8, 0x0f, 0x30, 0x0c, 0xf0, 0x1f, 0x00, 0xfc,
   0x0f, 0x30, 0x0c, 0xf0, 0x03, 0x00, 0xc0, 0x07, 0x30, 0x0c, 0xf8, 0x03,
   0x00, 0xc0, 0x1f, 0x30, 0x0c, 0xfc, 0x0f, 0x00, 0xf8, 0x1f, 0x30, 0x0c,
   0xfc, 0x0f, 0x00, 0xf8, 0x3f, 0x30, 0x0c, 0x9c, 0x07, 0x00, 0xf0, 0x18,
   0x30, 0x0c, 0x98, 0x0f, 0x00, 0xf0, 0x08, 0x30, 0x0c, 0x80, 0x0c, 0x00,
   0x98, 0x00, 0x30, 0x0c, 0x00, 0x18, 0x00, 0x1c, 0x00, 0x30, 0x0c, 0x00,
   0x38, 0x00, 0x0e, 0x00, 0x30, 0x0c, 0x00, 0x70, 0x00, 0x06, 0x00, 0x30,
   0x0c, 0x00, 0xe0, 0x00, 0x07, 0x00, 0x30, 0x0c, 0x00, 0xe0, 0x80, 0x03,
   0x00, 0x30, 0x8c, 0x8f, 0xc3, 0xc1, 0x01, 0x00, 0x30, 0x8c, 0x8f, 0x83,
   0xe3, 0x81, 0xff, 0x31, 0x0c, 0x87, 0x81, 0xf7, 0xc0, 0xff, 0x31, 0x0c,
   0x87, 0x01, 0x7f, 0xc0, 0x3c, 0x33, 0x0c, 0x87, 0x01, 0x7e, 0x00, 0x3c,
   0x30, 0x0c, 0x87, 0x01, 0x3e, 0x00, 0x3c, 0x30, 0x0c, 0x87, 0x01, 0x3e,
   0x00, 0x3c, 0x30, 0x0c, 0x87, 0x01, 0x7f, 0x00, 0x3c, 0x30, 0x0c, 0x87,
   0x81, 0xff, 0x00, 0x3c, 0x30, 0x0c, 0x87, 0x81, 0xff, 0x01, 0x3c, 0x30,
   0x0c, 0x87, 0x81, 0xf7, 0x01, 0x3c, 0x30, 0x0c, 0x8e, 0xf1, 0xe7, 0x07,
   0x3c, 0x30, 0x0c, 0xfe, 0xf0, 0xc3, 0x07, 0x3c, 0x30, 0x0c, 0xfc, 0xe0,
   0xc1, 0x07, 0x7e, 0x30, 0x0c, 0x30, 0xf0, 0xc1, 0x0f, 0x7e, 0x30, 0x0c,
   0x00, 0x78, 0x00, 0x1e, 0x00, 0x30, 0x0c, 0x00, 0x3c, 0x00, 0x3e, 0x00,
   0x18, 0x0c, 0x00, 0x3e, 0x00, 0x3e, 0x00, 0x18, 0x0c, 0x00, 0x1e, 0x00,
   0x7c, 0x00, 0x18, 0x0c, 0xc0, 0x1f, 0x00, 0xf8, 0x01, 0x18, 0x18, 0xc0,
   0x0f, 0x00, 0xf0, 0x01, 0x18, 0x18, 0xc0, 0x07, 0x00, 0xf0, 0x01, 0x0c,
   0x18, 0xc0, 0x07, 0x00, 0xf0, 0x01, 0x0c, 0x30, 0x80, 0x03, 0x00, 0xe0,
   0x01, 0x04, 0x30, 0x00, 0x00, 0x00, 0x00, 0x00, 0x06, 0x60, 0x00, 0x00,
   0x00, 0x00, 0x00, 0x02, 0x60, 0x00, 0x00, 0x00, 0x00, 0x00, 0x03, 0xc0,
   0x00, 0x00, 0x00, 0x00, 0x80, 0x01, 0x80, 0x01, 0x00, 0x00, 0x00, 0xc0,
   0x01, 0x00, 0x03, 0x00, 0x00, 0x00, 0xc0, 0x00, 0x00, 0x07, 0x00, 0x00,
   0x00, 0x60, 0x00, 0x00, 0x0e, 0x00, 0x00, 0x00, 0x30, 0x00, 0x00, 0x1c,
   0x00, 0x00, 0x00, 0x1c, 0x00, 0x00, 0x30, 0x00, 0x00, 0x00, 0x0e, 0x00,
   0x00, 0xe0, 0x00, 0x00, 0x80, 0x03, 0x00, 0x00, 0xc0, 0x03, 0x00, 0xe0,
   0x01, 0x00, 0x00, 0x00, 0x1f, 0x00, 0x7c, 0x00, 0x00, 0x00, 0x00, 0xfc,
   0xff, 0x1f, 0x00, 0x00, 0x00, 0x00, 0xe0, 0xff, 0x03, 0x00, 0x00, 0x00,
   0x00, 0x00, 0x00, 0x00, 0x00, 0x00, 0x00, 0x00, 0x00, 0x00, 0x00, 0x00,
   0x00, 0x00, 0x00, 0x00, 0x00, 0x00, 0x00, 0x00, 0x00, 0x00, 0x00, 0x00,
   0x00, 0x00, 0x00, 0xff, 0xff, 0xff, 0x81, 0xff, 0xff, 0xff, 0xff, 0xff,
   0xff, 0xc3, 0xff, 0xff, 0xff, 0x00, 0x00, 0x00, 0xc3, 0x00, 0x00, 0x00,
   0x00, 0x00, 0x00, 0xc3, 0x00, 0x00, 0x00, 0x00, 0x00, 0x00, 0xc3, 0x00,
   0x00, 0x00, 0x00, 0x00, 0x00, 0xc3, 0x00, 0x00, 0x00, 0x00, 0x80, 0x01,
   0xc3, 0xc0, 0x00, 0x00, 0x00, 0xe0, 0x01, 0xc3, 0xc0, 0x03, 0x00, 0x80,
   0xe7, 0x01, 0xc3, 0x80, 0xf7, 0x00, 0x80, 0xff, 0x00, 0xc3, 0x80, 0xff,
   0x01, 0xc0, 0xff, 0x00, 0xc3, 0x00, 0xff, 0x01, 0x00, 0x7c, 0x00, 0xc3,
   0x00, 0x3f, 0x00, 0x00, 0xfc, 0x01, 0xc3, 0x80, 0x3f, 0x00, 0x80, 0xff,
   0x01, 0xc3, 0xc0, 0xff, 0x00, 0x80, 0xff, 0x03, 0xc3, 0xc0, 0xff, 0x00,
   0x00, 0x8f, 0x01, 0xc3, 0xc0, 0x79, 0x00, 0x00, 0x8f, 0x00, 0xc3, 0x80,
   0xf9, 0x00, 0x80, 0x09, 0x00, 0xc3, 0x00, 0xc8, 0x00, 0xc0, 0x01, 0x00,
   0xc3, 0x00, 0x80, 0x01, 0xe0, 0x00, 0x00, 0xc3, 0x00, 0x80, 0x03, 0x60,
   0x00, 0x00, 0xc3, 0x00, 0x00, 0x07, 0x70, 0x00, 0x00, 0xc3, 0x00, 0x00,
   0x0e, 0x38, 0x00, 0x00, 0xc3, 0x00, 0x00, 0x0e, 0x1c, 0x00, 0x00, 0xc3,
   0xf8, 0x38, 0x1c, 0x1e, 0xf8, 0x1f, 0xc3, 0xf8, 0x38, 0x38, 0x0f, 0xfc,
   0x1f, 0xc3, 0x70, 0x18, 0x78, 0x07, 0xcc, 0x33, 0xc3, 0x70, 0x18, 0xf0,
   0x07, 0xc0, 0x03, 0xc3, 0x70, 0x18, 0xe0, 0x03, 0xc0, 0x03, 0xc3, 0x70,
   0x18, 0xe0, 0x03, 0xc0, 0x03, 0xc3, 0x70, 0x18, 0xe0, 0x07, 0xc0, 0x03,
   0xc3, 0x70, 0x18, 0xf0, 0x0f, 0xc0, 0x03, 0xc3, 0x70, 0x18, 0xf8, 0x1f,
   0xc0, 0x03, 0xc3, 0x70, 0x18, 0xf8, 0x1f, 0xc0, 0x03, 0xc3, 0x70, 0x18,
   0x78, 0x7e, 0xc0, 0x03, 0xc3, 0xe0, 0x18, 0x7f, 0x7c, 0xc0, 0x03, 0xc3,
   0xe0, 0x0f, 0x3f, 0x7c, 0xe0, 0x07, 0xc3, 0xc0, 0x0f, 0x1e, 0xfc, 0xe0,
   0x07, 0xc3, 0x00, 0x03, 0x1f, 0xe0, 0x01, 0x00, 0xc3, 0x00, 0x80, 0x07,
   0xe0, 0x03, 0x80, 0xc1, 0x00, 0xc0, 0x03, 0xe0, 0x03, 0x80, 0xc1, 0x00,
   0xe0, 0x03, 0xc0, 0x07, 0x80, 0xc1, 0x00, 0xe0, 0x01, 0x80, 0x1f, 0x80,
   0xc1, 0x00, 0xfc, 0x01, 0x00, 0x1f, 0x80, 0x81, 0x01, 0xfc, 0x00, 0x00,
   0x1f, 0xc0, 0x80, 0x01, 0x7c, 0x00, 0x00, 0x1f, 0xc0, 0x80, 0x01, 0x7c,
   0x00, 0x00, 0x1e, 0x40, 0x00, 0x03, 0x38, 0x00, 0x00, 0x00, 0x60, 0x00,
   0x03, 0x00, 0x00, 0x00, 0x00, 0x20, 0x00, 0x06, 0x00, 0x00, 0x00, 0x00,
   0x30, 0x00, 0x06, 0x00, 0x00, 0x00, 0x00, 0x18, 0x00, 0x0c, 0x00, 0x00,
   0x00, 0x00, 0x1c, 0x00, 0x18, 0x00, 0x00, 0x00, 0x00, 0x0c, 0x00, 0x30,
   0x00, 0x00, 0x00, 0x00, 0x06, 0x00, 0x70, 0x00, 0x00, 0x00, 0x00, 0x03,
   0x00, 0xe0, 0x00, 0x00, 0x00, 0xc0, 0x01, 0x00, 0xc0, 0x01, 0x00, 0x00,
   0xe0, 0x00, 0x00, 0x00, 0x03, 0x00, 0x00, 0x38, 0x00, 0x00, 0x00, 0x0e,
   0x00, 0x00, 0x1e, 0x00, 0x00, 0x00, 0x3c, 0x00, 0xc0, 0x07, 0x00, 0x00,
   0x00, 0xf0, 0x01, 0xff, 0x01, 0x00, 0x00, 0x00, 0xc0, 0xff, 0x3f, 0x00,
   0x00, 0x00, 0x00, 0x00, 0xfe, 0x00, 0x00, 0x00, 0x00, 0x00, 0x00, 0x00};
