#define vwall_width 16
#define vwall_height 16
static char vwall_bits[] = {
   0xee, 0xee, 0xdd, 0xdd, 0x77, 0x77, 0xbb, 0xbb, 0xee, 0xee, 0xdd, 0xdd,
   0x77, 0x77, 0xbb, 0xbb, 0xee, 0xee, 0xdd, 0xdd, 0x77, 0x77, 0xbb, 0xbb,
   0xee, 0xee, 0xdd, 0xdd, 0x77, 0x77, 0xbb, 0xbb};
